<svg width="49" height="50" viewBox="0 0 49 50" fill="none" xmlns="http://www.w3.org/2000/svg">
<rect x="0.191483" y="0.838867" width="48.743" height="48.743" rx="24.3715" fill="#0D1B39" style="fill:#0D1B39;fill:color(display-p3 0.0525 0.1053 0.2250);fill-opacity:1;"/>
<path d="M34.3129 25.2102C34.3129 24.4411 33.6894 23.8176 32.9203 23.8176H25.957V16.8543C25.957 16.0851 25.3335 15.4616 24.5643 15.4616C23.7952 15.4616 23.1717 16.0851 23.1717 16.8543V23.8176H16.2084C15.4392 23.8176 14.8157 24.4411 14.8157 25.2102C14.8157 25.9794 15.4392 26.6029 16.2084 26.6029H23.1717V33.5662C23.1717 34.3353 23.7952 34.9588 24.5643 34.9588C25.3335 34.9588 25.957 34.3353 25.957 33.5662V26.6029H32.9203C33.6894 26.6029 34.3129 25.9794 34.3129 25.2102Z" fill="white" style="fill:white;fill-opacity:1;"/>
</svg>
